# xmcd
# 
# Track frame offsets:
#   225
#   17447
#   32677
#   47245
#   61742
#   77305
#   95567
#   113317
#   131025
#   146300
#   165527
#   178350
#   195640
#   212312
# 
# Disc length: 3050 seconds
# 
# Revision: 2
# Processed by: cddbd v1.5.1PL2 Copyright (c) Steve Scherf et al.
# Submitted via: Synapstar 1.0 
# 
DISCID=ab0be70e
DTITLE=Various Artist - SDP023
DYEAR=1900
DGENRE=Country
TTITLE0=Alan Jackson - I'll Try
TTITLE1=Faith Hill - It Matters To Me
TTITLE2=Doug Supernaw - Not Enough Hours In The Night
TTITLE3=John Michael Montgomery - Cowboy Love
TTITLE4=Blackhawk - Like There Ain't No Yesterday
TTITLE5=Reba McEntire - Ring On Her Finger
TTITLE6=Joe Diffie - Bigger Than The Beatles
TTITLE7=Collin Raye - Not That Different
TTITLE8=Tracy Lawrence - If You Loved Me
TTITLE9=Kenny Chesney - Grandpa Told Me So
TTITLE10=John Anderson - Paradise
TTITLE11=Dwight Yoakum - Nothing
TTITLE12=David Lee Murphy - Dust On The Bottle
TTITLE13=Martina McBride - Wild Angels
EXTD=MediaType: Karaoke CD+G Producer: StarDisc
EXTT0=
EXTT1=
EXTT2=
EXTT3=
EXTT4=
EXTT5=
EXTT6=
EXTT7=
EXTT8=
EXTT9=
EXTT10=
EXTT11=
EXTT12=
EXTT13=
PLAYORDER=
